<?xml version="1.0" standalone="no"?>
<!DOCTYPE svg PUBLIC "-//W3C//DTD SVG 20010904//EN"
 "http://www.w3.org/TR/2001/REC-SVG-20010904/DTD/svg10.dtd">
<svg version="1.0" xmlns="http://www.w3.org/2000/svg"
 width="100.000000pt" height="100.000000pt" viewBox="0 0 100.000000 100.000000"
 preserveAspectRatio="xMidYMid meet">

<g transform="translate(0.000000,100.000000) scale(0.100000,-0.100000)"
fill="#000000" stroke="none">
<path d="M320 974 c-54 -17 -128 -70 -164 -117 -16 -20 -32 -62 -40 -99 -19
-89 -39 -118 -82 -118 l-34 0 0 -320 0 -320 211 0 210 0 -17 29 c-34 57 -156
196 -204 232 -48 36 -49 38 -32 58 17 21 17 21 135 -49 66 -39 133 -80 150
-92 17 -12 27 -16 22 -9 -6 11 -2 13 19 9 27 -5 40 5 41 32 0 8 8 16 17 18 15
3 16 -1 9 -20 -9 -25 -2 -57 24 -109 18 -34 18 -34 -2 -17 -30 28 -67 22 -97
-13 -46 -55 -33 -69 66 -69 l61 0 -6 33 -6 32 15 -32 14 -33 185 0 185 0 0 25
c0 23 -4 25 -42 26 -24 1 -53 0 -65 -1 -18 -1 -23 4 -24 22 l0 23 -9 -22 c-8
-20 -16 -23 -70 -23 l-60 0 0 60 0 60 135 0 135 0 0 235 0 235 -139 0 -139 0
-6 -27 c-3 -16 -10 -59 -16 -98 -15 -98 -38 -163 -62 -176 -28 -15 -141 -6
-172 14 -13 9 -25 24 -28 34 -4 16 2 18 70 15 61 -3 77 -1 84 13 6 10 16 14
29 10 10 -4 19 -2 19 4 0 16 -103 43 -168 43 -41 0 -56 12 -95 79 -15 25 -36
54 -47 64 -11 10 -20 28 -20 41 0 22 3 23 49 17 28 -3 58 -2 68 2 10 5 24 7
31 6 22 -3 13 9 -14 20 -15 5 -24 12 -21 16 14 13 57 -29 67 -67 9 -32 8 -46
-5 -69 -22 -44 -19 -57 18 -71 17 -6 39 -16 48 -20 13 -7 18 -4 22 11 3 11 11
18 17 17 25 -6 20 20 -4 26 -31 8 -60 65 -53 102 7 38 -11 92 -34 105 -12 6
-42 8 -73 5 l-52 -6 -18 49 c-9 27 -28 64 -42 82 -22 30 -22 34 -8 50 8 9 39
24 69 34 30 9 55 19 55 21 0 9 -68 2 -110 -12z m649 -468 c-1 -17 -2 -17 -6
-3 -5 19 -43 24 -43 5 0 -7 -3 -30 -6 -50 -5 -31 -4 -38 10 -38 9 0 16 6 16
13 0 8 3 9 8 1 4 -6 14 -14 22 -17 8 -3 -5 -6 -30 -6 l-45 -1 3 56 c4 55 4 56
-24 52 -29 -3 -47 -28 -21 -28 9 0 18 6 20 13 4 9 6 9 6 0 1 -6 -4 -15 -9 -18
-8 -5 -7 -11 0 -21 7 -7 10 -19 7 -26 -4 -8 -6 -7 -6 5 -1 9 -8 17 -16 17 -18
0 -20 -21 -3 -38 9 -9 9 -12 1 -12 -17 0 -27 39 -14 54 7 8 7 16 0 23 -5 5 -7
17 -4 26 5 12 21 15 71 15 59 0 64 -2 63 -22z m8 -63 c-3 -10 -5 -4 -5 12 0
17 2 24 5 18 2 -7 2 -21 0 -30z m-399 -10 c-10 -2 -26 -2 -35 0 -10 3 -2 5 17
5 19 0 27 -2 18 -5z"/>
<path d="M808 857 c-5 -10 -8 -39 -8 -63 l0 -44 98 0 97 0 -3 62 c-3 46 -6 58
-13 45 -13 -22 -26 -22 -32 1 -4 13 -5 13 -6 -4 -1 -14 6 -24 20 -27 16 -4 20
-12 17 -34 -3 -24 -8 -28 -36 -31 l-34 -3 4 55 c1 31 0 56 -4 56 -5 0 -8 -25
-8 -55 0 -55 -15 -75 -23 -32 l-4 22 -2 -22 c0 -13 -5 -23 -10 -23 -5 0 -12
10 -14 23 l-4 22 -2 -22 c-2 -47 -20 -21 -23 35 -2 37 -6 51 -10 39z"/>
<path d="M856 855 c4 -8 8 -15 10 -15 2 0 4 7 4 15 0 8 -4 15 -10 15 -5 0 -7
-7 -4 -15z"/>
<path d="M941 794 c0 -11 3 -14 6 -6 3 7 2 16 -1 19 -3 4 -6 -2 -5 -13z"/>
<path d="M588 729 c-21 -12 -23 -35 -5 -53 10 -10 48 -13 95 -8 23 3 12 32
-20 52 -37 22 -46 24 -70 9z m73 -46 c12 -16 12 -17 -1 -7 -8 6 -22 14 -30 17
-13 5 -12 6 1 6 9 1 23 -7 30 -16z"/>
<path d="M740 110 c0 -61 17 -67 23 -7 l4 42 1 -42 c1 -31 6 -43 17 -43 11 0
15 12 15 50 0 49 -1 50 -30 50 -29 0 -30 -1 -30 -50z"/>
<path d="M813 110 c2 -40 6 -50 19 -50 13 0 20 11 24 40 4 22 10 40 15 40 5 0
9 -18 9 -40 0 -29 4 -40 15 -40 10 0 15 10 15 34 0 19 3 41 6 50 5 13 -2 16
-34 16 -34 0 -41 -4 -45 -22 l-4 -23 -2 23 c0 12 -5 22 -11 22 -5 0 -9 -22 -7
-50z"/>
<path d="M930 110 c0 -37 4 -50 14 -50 8 0 17 8 19 18 4 16 5 16 6 0 0 -10 6
-18 11 -18 6 0 10 23 10 50 0 51 -11 64 -29 33 -10 -17 -10 -17 -11 0 0 9 -4
17 -10 17 -5 0 -10 -22 -10 -50z"/>
</g>
</svg>
